<svg width="22" height="42" viewBox="0 0 22 42" fill="none" xmlns="http://www.w3.org/2000/svg">
<path d="M18.823 0H3.17704C1.42334 0 0 1.35574 0 3.03274V38.9673C0 40.6413 1.42025 42 3.17704 42H18.823C20.5767 42 22 40.6443 22 38.9687V3.03274C22 2.2284 21.6653 1.45702 21.0695 0.888268C20.4737 0.319519 19.6656 0 18.823 0ZM9.4138 3.3363H12.5877C12.7421 3.3363 12.8703 3.45419 12.8703 3.60156C12.8703 3.74892 12.7421 3.86681 12.5862 3.86681H9.4138C9.25942 3.86681 9.13283 3.74892 9.13283 3.60156C9.13283 3.45419 9.25633 3.3363 9.41071 3.3363H9.4138ZM7.19851 3.03274C7.34591 3.03274 7.48726 3.08863 7.59149 3.18812C7.69571 3.28761 7.75426 3.42254 7.75426 3.56324C7.75426 3.70394 7.69571 3.83888 7.59149 3.93837C7.48726 4.03786 7.34591 4.09375 7.19851 4.09375C7.05112 4.09375 6.90976 4.03786 6.80554 3.93837C6.70131 3.83888 6.64276 3.70394 6.64276 3.56324C6.64276 3.42254 6.70131 3.28761 6.80554 3.18812C6.90976 3.08863 7.05112 3.03274 7.19851 3.03274ZM11.0008 40.4851C10.7088 40.4851 10.4198 40.4302 10.1501 40.3236C9.88036 40.2169 9.6353 40.0606 9.42887 39.8636C9.22245 39.6665 9.0587 39.4326 8.94699 39.1751C8.83527 38.9177 8.77777 38.6417 8.77777 38.3631C8.77777 38.0844 8.83527 37.8085 8.94699 37.551C9.0587 37.2936 9.22245 37.0596 9.42887 36.8626C9.6353 36.6655 9.88036 36.5092 10.1501 36.4026C10.4198 36.2959 10.7088 36.241 11.0008 36.241C11.5903 36.241 12.1558 36.4646 12.5727 36.8626C12.9896 37.2605 13.2238 37.8003 13.2238 38.3631C13.2238 38.9259 12.9896 39.4656 12.5727 39.8636C12.1558 40.2615 11.5903 40.4851 11.0008 40.4851ZM20.8082 34.4167C20.8082 34.5373 20.7582 34.6531 20.6691 34.7387C20.5801 34.8243 20.4591 34.8727 20.3327 34.8735H1.66725C1.54086 34.8727 1.41993 34.8243 1.33085 34.7387C1.24177 34.6531 1.19177 34.5373 1.19178 34.4167V7.43006C1.19178 7.17954 1.40481 6.97323 1.66725 6.97323H20.3312C20.5936 6.97323 20.8098 7.17954 20.8098 7.43006V34.4167H20.8082Z" fill="black"/>
</svg>
