<svg width="38" height="26" viewBox="0 0 38 26" fill="none" xmlns="http://www.w3.org/2000/svg">
<path d="M36.6429 0H1.35714C0.606473 0 0 0.528125 0 1.18182V24.8182C0 25.4719 0.606473 26 1.35714 26H36.6429C37.3935 26 38 25.4719 38 24.8182V1.18182C38 0.528125 37.3935 0 36.6429 0ZM34.9464 4.09204V23.3409H3.05357V4.09204L1.88304 3.29801L3.54978 1.43295L5.36495 2.66278H32.6393L34.4545 1.43295L36.1212 3.29801L34.9464 4.09204ZM32.6393 2.65909L19 11.892L5.36071 2.65909L3.54554 1.42926L1.87879 3.29432L3.04933 4.08835L17.5368 13.8974C17.9535 14.1793 18.466 14.3323 18.9936 14.3323C19.5212 14.3323 20.0338 14.1793 20.4504 13.8974L34.9464 4.09204L36.117 3.29801L34.4502 1.43295L32.6393 2.65909Z" fill="black"/>
</svg>
