<svg width="27" height="37" viewBox="0 0 27 37" fill="none" xmlns="http://www.w3.org/2000/svg">
<path d="M13.5 8.73611C12.5111 8.73611 11.5444 9.0375 10.7222 9.60217C9.8999 10.1668 9.25904 10.9694 8.8806 11.9084C8.50217 12.8474 8.40315 13.8807 8.59608 14.8775C8.789 15.8744 9.2652 16.7901 9.96447 17.5087C10.6637 18.2274 11.5546 18.7169 12.5245 18.9151C13.4945 19.1134 14.4998 19.0117 15.4134 18.6227C16.327 18.2338 17.1079 17.5751 17.6573 16.73C18.2068 15.8849 18.5 14.8914 18.5 13.875C18.4985 12.5126 17.9712 11.2064 17.0339 10.243C16.0965 9.27958 14.8256 8.73767 13.5 8.73611ZM13.5 16.4444C13.0055 16.4444 12.5222 16.2938 12.1111 16.0114C11.7 15.7291 11.3795 15.3278 11.1903 14.8583C11.0011 14.3888 10.9516 13.8722 11.048 13.3737C11.1445 12.8753 11.3826 12.4175 11.7322 12.0581C12.0819 11.6988 12.5273 11.4541 13.0123 11.3549C13.4972 11.2558 13.9999 11.3067 14.4567 11.5011C14.9135 11.6956 15.304 12.025 15.5787 12.4475C15.8534 12.87 16 13.3668 16 13.875C15.9992 14.5562 15.7356 15.2093 15.2669 15.691C14.7982 16.1727 14.1628 16.4437 13.5 16.4444Z" fill="black"/>
<path d="M23.0458 4.02698C20.6854 1.62309 17.5347 0.19508 14.2015 0.0185605C10.8684 -0.157959 7.58928 0.929526 4.99696 3.07113C2.40465 5.21273 0.68294 8.25663 0.164136 11.6154C-0.354667 14.9741 0.366209 18.4095 2.18764 21.2586L11.573 35.9363C11.7818 36.2629 12.0674 36.5312 12.4038 36.717C12.7402 36.9027 13.1168 37 13.4994 37C13.8821 37 14.2586 36.9027 14.595 36.717C14.9314 36.5312 15.217 36.2629 15.4259 35.9363L24.8115 21.2586C26.5016 18.6157 27.2485 15.4612 26.927 12.324C26.6055 9.18673 25.2352 6.25741 23.0458 4.02698ZM22.7303 19.8774L13.4995 34.3128L4.26859 19.8774C1.44306 15.4587 2.04908 9.54534 5.70954 5.81625C6.73251 4.77411 7.94697 3.94743 9.28357 3.38343C10.6202 2.81942 12.0527 2.52913 13.4995 2.52913C14.9462 2.52913 16.3788 2.81942 17.7154 3.38343C19.052 3.94743 20.2664 4.77411 21.2894 5.81625C24.9498 9.54534 25.5558 15.4587 22.7303 19.8774Z" fill="black"/>
</svg>
